<?xml version="1.0" standalone="no"?><!DOCTYPE svg PUBLIC "-//W3C//DTD SVG 1.1//EN" "http://www.w3.org/Graphics/SVG/1.1/DTD/svg11.dtd"><svg t="1521297766436" class="icon" style="" viewBox="0 0 1024 1024" version="1.1" xmlns="http://www.w3.org/2000/svg" p-id="9922" xmlns:xlink="http://www.w3.org/1999/xlink" width="64" height="64"><defs><style type="text/css"></style></defs><path d="M899.072 457.216c20.992 15.36 34.816 40.448 34.816 68.096v344.064c0 46.592-38.4 84.992-84.992 84.992H189.44c-46.592 0-84.992-37.888-84.992-84.992v-344.064c0-22.016 8.704-42.496 22.528-57.344 1.024-1.536 2.56-2.56 3.584-3.584l336.384-332.8c32.768-27.648 66.048-29.184 98.816-3.584l333.312 329.216z m-650.24-78.848v203.776l274.432 212.992 250.88-196.608v-220.16H248.832zM337.92 428.544v34.304h351.232v-34.304H337.92z m0 143.36v34.304h351.232v-34.304H337.92z m0-72.704v34.304h351.232v-34.304H337.92z m-140.8 401.408L361.984 742.4c7.168-6.656 7.168-17.92 0.512-25.088-6.656-7.168-17.92-7.168-25.088-0.512l-164.864 158.208c-7.168 6.656-7.168 17.92-0.512 25.088 7.168 7.168 17.92 7.168 25.088 0.512z m680.448-25.6L712.704 716.8c-7.168-6.656-18.432-6.656-25.088 0.512-6.656 7.168-6.656 18.432 0.512 25.088l164.864 158.208c7.168 6.656 18.432 6.656 25.088-0.512 7.168-7.168 6.656-18.432-0.512-25.088z" fill="#1296db" p-id="9923"></path></svg>