<?xml version="1.0" standalone="no"?><!DOCTYPE svg PUBLIC "-//W3C//DTD SVG 1.1//EN" "http://www.w3.org/Graphics/SVG/1.1/DTD/svg11.dtd"><svg t="1524233522449" class="icon" style="" viewBox="0 0 1024 1024" version="1.1" xmlns="http://www.w3.org/2000/svg" p-id="1408" xmlns:xlink="http://www.w3.org/1999/xlink" width="64" height="64"><defs><style type="text/css"></style></defs><path d="M552.611 106.844 128.696 530.762c-26.525 26.529-26.525 69.54 0 96.07l294.212 294.214c26.53 26.523 69.54 26.523 96.071 0L942.896 497.13c14.854-14.855 21.035-34.873 19.247-54.272L962.143 109.854c0-12.507-10.137-22.649-22.643-22.649L603.33 87.205c-1.801-0.066-3.574-0.066-5.368 0l-4.171 0 0.367 0.368C579.003 89.022 564.221 95.24 552.611 106.844zM722.121 221.543c28.187-28.185 73.887-28.185 102.071 0 28.187 28.186 28.187 73.887 0 102.071-28.185 28.192-73.884 28.187-102.071 0C693.937 295.428 693.93 249.728 722.121 221.543z" p-id="1409" fill="#8a8a8a"></path></svg>