<?xml version="1.0" standalone="no"?><!DOCTYPE svg PUBLIC "-//W3C//DTD SVG 1.1//EN" "http://www.w3.org/Graphics/SVG/1.1/DTD/svg11.dtd"><svg t="1521295904986" class="icon" style="" viewBox="0 0 1024 1024" version="1.1" xmlns="http://www.w3.org/2000/svg" p-id="3664" xmlns:xlink="http://www.w3.org/1999/xlink" width="64" height="64"><defs><style type="text/css"></style></defs><path d="M935.873 232.997 730.023 10.165C724.018 3.687 715.603 0 706.788 0L370.249 0c-48.98 0-88.815 39.837-88.815 88.802l0 40.79 63.317 0 0-40.79c0-14.055 11.445-25.477 25.497-25.477l310.169 0 0 215.884c0 8.165 6.62 14.785 14.78 14.785l185.765 0 0 478.244c0 14.065-11.445 25.48-25.5 25.48l-79.3 0 0 63.33 79.3 0c48.965 0 88.825-39.845 88.825-88.81L944.287 254.479C944.288 246.499 941.273 238.839 935.873 232.997zM709.988 81.775l168.74 182.645-168.74 0L709.988 81.775zM530.619 173.137c-6.005-6.477-14.44-10.182-23.26-10.182L170.8 162.955c-48.96 0-88.777 39.837-88.777 88.797l0 683.431c0 48.98 39.817 88.815 88.777 88.815l485.239 0c48.96 0 88.82-39.835 88.82-88.815L744.859 417.416c0-7.943-2.99-15.622-8.42-21.467L530.619 173.137zM668.548 415.746l-142.49 0 0-154.24L668.548 415.746zM656.038 960.673 170.8 960.673c-14.05 0-25.46-11.425-25.46-25.49L145.34 251.752c0-14.052 11.405-25.477 25.46-25.477l322.712 0 2.972 3.217 0 201.017c0 8.165 6.617 14.767 14.785 14.767l170.265 0 0 489.901C681.533 949.248 670.088 960.673 656.038 960.673zM576.224 808.383 229.217 808.383c-6.302 0-11.415 5.085-11.415 11.425 0 6.3 5.112 11.4 11.415 11.4l347.007 0c6.315 0 11.425-5.1 11.425-11.4C587.648 813.468 582.539 808.383 576.224 808.383zM576.224 713.928 229.217 713.928c-6.302 0-11.415 5.125-11.415 11.44 0 6.3 5.112 11.385 11.415 11.385l347.007 0c6.315 0 11.425-5.085 11.425-11.385C587.648 719.053 582.539 713.928 576.224 713.928zM576.224 619.513 229.217 619.513c-6.302 0-11.415 5.125-11.415 11.435 0 6.3 5.112 11.41 11.415 11.41l347.007 0c6.315 0 11.425-5.11 11.425-11.41S582.539 619.513 576.224 619.513zM229.217 550.099l158.73 0c6.318 0 11.412-5.095 11.412-11.39 0-6.3-5.095-11.425-11.412-11.425l-158.73 0c-6.302 0-11.415 5.125-11.415 11.425C217.799 545.004 222.914 550.099 229.217 550.099zM269.704 362.162c0 4.462 3.402 8.072 7.59 8.072 0.052 0 0.087 0 0.147 0 1.563 21.257 18.295 42.515 38.74 42.515 20.442 0 37.192-21.257 38.76-42.515 0.038 0 0.09 0 0.135 0 4.202 0 7.6-3.607 7.6-8.072 0-3.277-1.855-6.09-4.505-7.342 1.545-4.775 2.38-9.89 2.38-15.207 0-25.99-19.847-47.062-44.37-47.062-24.505 0-44.362 21.07-44.362 47.062 0 5.317 0.842 10.432 2.38 15.207C271.539 356.072 269.704 358.884 269.704 362.162zM221.932 488.116l188.507 0c2.283 0 4.14-1.835 4.14-4.13l0-14.767c0-1.105-0.457-2.19-1.255-2.965-18.115-17.582-40.24-29.997-64.03-35.942-0.603-0.31-1.273-0.497-1.97-0.497l-2.15 0c-0.688 0-1.353 0.167-1.957 0.487-7.177 3.848-17.042 6.065-27.035 6.065-9.995 0-19.84-2.215-27.025-6.065-0.605-0.32-1.26-0.487-1.952-0.487l-1.56 0c-0.328 0-0.65 0.042-0.962 0.105-24.407 5.777-47.102 18.335-65.627 36.335-0.805 0.775-1.25 1.857-1.25 2.965l0 14.767C217.799 486.281 219.647 488.116 221.932 488.116z" p-id="3665" fill="#DD2222"></path></svg>