<?xml version="1.0" standalone="no"?><!DOCTYPE svg PUBLIC "-//W3C//DTD SVG 1.1//EN" "http://www.w3.org/Graphics/SVG/1.1/DTD/svg11.dtd"><svg t="1521268606724" class="icon" style="" viewBox="0 0 1024 1024" version="1.1" xmlns="http://www.w3.org/2000/svg" p-id="1626" xmlns:xlink="http://www.w3.org/1999/xlink" width="128" height="128"><defs><style type="text/css"></style></defs><path d="M36.8 856.96h921.312v48.96H36.8z" p-id="1627" fill="#0894ec"></path><path d="M35.904 399.264h54.432v506.688H35.904zM910.016 399.264h54.432v506.688h-54.432zM1020.672 143.488v175.904l-29.056 79.872V275.872zM792.352 431.264h-114.784a23.616 23.616 0 0 0-23.584 23.584v378.56c0 12.992 10.528 23.552 23.584 23.552h7.328c-11.328 0-20.544-10.304-20.544-23.168V462.016c0-12.8 9.184-23.168 20.544-23.168h100.064c11.36 0 20.608 10.336 20.608 23.168v371.808c0 12.832-9.216 23.168-20.608 23.168h7.36c13.024 0 23.552-10.56 23.552-23.552v-378.56a23.552 23.552 0 0 0-23.52-23.616z" p-id="1628" fill="#0894ec"></path><path d="M770.912 486.048h-71.904a11.712 11.712 0 0 0-11.712 11.712v63.296c0 6.432 5.248 11.648 11.712 11.648h71.904a11.648 11.648 0 0 0 11.68-11.648v-63.296a11.68 11.68 0 0 0-11.68-11.712zM731.2 634.24h10.112l-1.984-13.568-8.128 13.568z m49.248-187.872h-91.04c-10.272 0-18.656 10.208-18.656 22.752v365.12c0 12.608 8.384 22.72 18.656 22.72h91.04c10.336 0 18.784-10.112 18.784-22.72V469.12c0-12.544-8.448-22.752-18.784-22.752z m-66.272 197.376a26.592 26.592 0 0 1-14.432 4.192 14.72 14.72 0 0 1-9.632-2.848c-3.072-2.624-4.576-6.304-4.576-11.232 0-3.328 0.64-6.432 1.952-9.472a19.968 19.968 0 0 1 6.688-8.416 17.344 17.344 0 0 1 10.176-3.008c3.872 0 7.008 0.864 9.376 2.656a13.568 13.568 0 0 1 4.672 7.968l-6.432 0.768c-0.608-1.952-1.504-3.36-2.752-4.352s-2.912-1.408-4.736-1.408a11.2 11.2 0 0 0-6.176 1.728 11.328 11.328 0 0 0-4.384 5.408c-1.12 2.496-1.6 5.088-1.6 7.968s0.64 4.96 1.92 6.368c1.312 1.344 3.2 1.984 5.664 1.984a16.512 16.512 0 0 0 4.608-0.64c1.568-0.48 2.912-0.832 4.096-1.472l0.96-5.024h-8.64l1.216-5.696h15.072l-3.04 14.528z m29.088 3.616l-1.088-7.488h-13.44l-4.032 7.488h-7.168l19.136-33.824h7.68l5.504 33.824h-6.592z m23.744-22.816a24 24 0 0 0 4.992 2.592 24 24 0 0 1 7.36 4.096 7.808 7.808 0 0 1 2.432 5.92 9.92 9.92 0 0 1-3.488 7.648 14.528 14.528 0 0 1-9.92 3.168 19.712 19.712 0 0 1-7.52-1.376 9.28 9.28 0 0 1-4.512-4.16 12.512 12.512 0 0 1-1.216-6.016l6.624-0.352c0.096 2.112 0.416 3.584 0.992 4.288 1.088 1.216 2.944 1.792 5.696 1.792 2.24 0 3.904-0.32 4.928-1.152a3.872 3.872 0 0 0 1.504-2.976 3.008 3.008 0 0 0-1.216-2.496 18.048 18.048 0 0 0-4.832-2.464 41.824 41.824 0 0 1-5.728-2.88 8.224 8.224 0 0 1-3.904-7.2c0-2.88 0.992-5.216 3.072-7.072 2.048-1.952 5.12-2.88 8.96-2.88 3.968 0 7.072 0.928 9.184 2.88a9.92 9.92 0 0 1 3.616 7.36l-6.624 0.32c-0.224-1.664-0.768-2.88-1.792-3.744-1.024-0.896-2.496-1.344-4.448-1.344s-3.296 0.384-4.096 1.024a3.2 3.2 0 0 0-0.064 5.024z m18.24-61.792a12.352 12.352 0 0 1-12.416 12.384h-75.808a12.352 12.352 0 0 1-12.416-12.384v-66.784c0-6.848 5.504-12.416 12.416-12.416h75.808c6.88 0 12.416 5.568 12.416 12.416v66.784zM815.904 535.296l11.808-5.92 7.136 12.992v8.224s15.84 5.952 0 15.328l-1.216 35.392h-7.072l-1.792-41.056h-8.864v-24.96zM826.56 601.344h7.072v38.048s43.616 33.888 44.8 104c1.216 70.208-41.28 103.2-41.28 103.2s-17.248 9.44-23.744-7.264l2.496-64.672v-28.896s11.232-7.584 8.864-102.496l-8.864-6.56v-25.92l11.232 7.616-0.576-17.056z m-9.536 170.368v66.656c24.8 19.936 46.56-46.656 46.56-46.656 25.408-93.088-30.048-140.352-30.048-140.352 4.704 71.392-16.512 120.352-16.512 120.352zM529.056 431.264h-114.784a23.616 23.616 0 0 0-23.584 23.584v378.56c0 12.992 10.592 23.552 23.584 23.552h7.36c-11.392 0-20.608-10.304-20.608-23.168V462.016c0-12.8 9.216-23.168 20.608-23.168h100.064c11.392 0 20.576 10.336 20.576 23.168v371.808c0 12.832-9.184 23.168-20.576 23.168h7.36c12.992 0 23.552-10.56 23.552-23.552v-378.56a23.584 23.584 0 0 0-23.552-23.616z" p-id="1629" fill="#0894ec"></path><path d="M467.904 634.24h10.08l-1.952-13.568-8.128 13.568z m49.248-187.872h-90.976c-10.368 0-18.688 10.208-18.688 22.752v365.12c0 12.608 8.32 22.72 18.688 22.72h90.976c10.368 0 18.688-10.112 18.688-22.72V469.12c0-12.544-8.352-22.752-18.688-22.752z m-66.272 197.376a26.592 26.592 0 0 1-14.464 4.192 14.56 14.56 0 0 1-9.6-2.848c-3.072-2.624-4.576-6.304-4.576-11.232a24 24 0 0 1 1.92-9.472 19.968 19.968 0 0 1 6.688-8.416 17.312 17.312 0 0 1 10.144-3.008 15.04 15.04 0 0 1 9.408 2.656 13.568 13.568 0 0 1 4.672 7.968l-6.464 0.768a8.512 8.512 0 0 0-2.72-4.352 7.776 7.776 0 0 0-4.768-1.408 11.296 11.296 0 0 0-6.208 1.728 11.904 11.904 0 0 0-4.384 5.408c-1.024 2.496-1.6 5.088-1.6 7.968s0.672 4.96 1.952 6.368c1.312 1.344 3.2 1.984 5.696 1.984a16.448 16.448 0 0 0 4.576-0.64c1.568-0.48 2.912-0.832 4.032-1.472l1.024-5.024h-8.576l1.152-5.696h15.104l-3.008 14.528z m29.12 3.616l-1.152-7.488h-13.376l-4.064 7.488h-7.136l19.136-33.824h7.712l5.504 33.824H480z m23.712-22.816a24.928 24.928 0 0 0 4.992 2.592 26.016 26.016 0 0 1 7.424 4.096 8 8 0 0 1 2.368 5.92 9.824 9.824 0 0 1-3.52 7.648 14.336 14.336 0 0 1-9.824 3.168 20.608 20.608 0 0 1-7.616-1.376 9.664 9.664 0 0 1-4.48-4.16 12.48 12.48 0 0 1-1.184-6.016l6.592-0.352c0.096 2.112 0.48 3.584 1.024 4.288 1.088 1.216 2.944 1.792 5.664 1.792 2.336 0 3.968-0.32 4.96-1.152a3.616 3.616 0 0 0 1.504-2.976 2.976 2.976 0 0 0-1.248-2.496 18.816 18.816 0 0 0-4.8-2.464 44.736 44.736 0 0 1-5.76-2.88 8.224 8.224 0 0 1-3.904-7.2c0-2.88 1.024-5.216 3.168-7.072 1.984-1.952 4.992-2.88 8.896-2.88 3.936 0 7.008 0.928 9.152 2.88a9.952 9.952 0 0 1 3.648 7.36l-6.656 0.32a5.664 5.664 0 0 0-1.76-3.744c-0.992-0.896-2.496-1.344-4.416-1.344-1.92 0-3.296 0.384-4.064 1.024a3.136 3.136 0 0 0-1.28 2.592 3.2 3.2 0 0 0 1.12 2.432z m18.304-61.792a12.384 12.384 0 0 1-12.416 12.384h-75.904a12.32 12.32 0 0 1-12.352-12.384v-66.784c0-6.848 5.504-12.416 12.352-12.416h75.904c6.848 0 12.416 5.568 12.416 12.416v66.784z m-14.368-76.704h-71.904a11.744 11.744 0 0 0-11.776 11.712v63.296c0 6.432 5.28 11.648 11.776 11.648h71.904a11.648 11.648 0 0 0 11.68-11.648v-63.296a11.68 11.68 0 0 0-11.68-11.712zM552.64 535.296l11.808-5.92 7.104 12.992v8.224s15.84 5.952 0 15.328l-1.216 35.392h-7.072l-1.792-41.056h-8.832v-24.96zM563.264 601.344h7.072v38.048s43.616 33.888 44.864 104c1.088 70.208-41.312 103.2-41.312 103.2s-17.216 9.44-23.744-7.264l2.496-64.672v-28.896s11.2-7.584 8.832-102.496l-8.832-6.56v-25.92l11.2 7.616-0.576-17.056z m-9.472 170.368v66.656c24.736 19.936 46.528-46.656 46.528-46.656 25.376-93.088-30.016-140.352-30.016-140.352 4.672 71.392-16.512 120.352-16.512 120.352z" p-id="1630" fill="#0894ec"></path><path d="M265.792 431.264H151.008a23.648 23.648 0 0 0-23.616 23.584v378.56c0 12.992 10.56 23.552 23.616 23.552h7.328c-11.36 0-20.576-10.304-20.576-23.168V462.016c0-12.8 9.216-23.168 20.576-23.168h100.064c11.424 0 20.608 10.336 20.608 23.168v371.808c0 12.832-9.184 23.168-20.608 23.168h7.392c12.992 0 23.552-10.56 23.552-23.552v-378.56a23.616 23.616 0 0 0-23.552-23.616z" p-id="1631" fill="#0894ec"></path><path d="M204.64 634.24h10.08l-1.984-13.568-8.096 13.568z m39.712-148.192H172.416a11.712 11.712 0 0 0-11.712 11.712v63.296c0 6.432 5.248 11.648 11.712 11.648h71.936a11.712 11.712 0 0 0 11.744-11.648v-63.296a11.744 11.744 0 0 0-11.744-11.712z m9.568-39.68H162.912c-10.4 0-18.72 10.208-18.72 22.752v365.12c0 12.608 8.352 22.72 18.72 22.72h90.976c10.336 0 18.72-10.112 18.72-22.72V469.12c0.032-12.544-8.384-22.752-18.688-22.752z m-66.304 197.376a26.752 26.752 0 0 1-14.432 4.192 14.496 14.496 0 0 1-9.6-2.848c-3.104-2.624-4.608-6.304-4.608-11.232 0-3.328 0.64-6.432 2.016-9.472a19.424 19.424 0 0 1 6.656-8.416 17.344 17.344 0 0 1 10.176-3.008c3.904 0 7.072 0.864 9.376 2.656a13.568 13.568 0 0 1 4.672 7.968l-6.464 0.768a8 8 0 0 0-2.784-4.352 7.52 7.52 0 0 0-4.736-1.408 11.2 11.2 0 0 0-6.176 1.728 11.776 11.776 0 0 0-4.416 5.408c-1.088 2.496-1.536 5.088-1.536 7.968s0.608 4.96 1.888 6.368c1.312 1.344 3.232 1.984 5.664 1.984a16.448 16.448 0 0 0 4.576-0.64 17.504 17.504 0 0 0 4.096-1.408l1.024-5.024H174.4l1.152-5.696h15.136l-3.072 14.464z m29.088 3.616l-1.152-7.488h-13.376l-4.032 7.488h-7.168l19.104-33.824h7.68l5.504 33.824h-6.56z m23.744-22.816a25.92 25.92 0 0 0 4.992 2.592 24.768 24.768 0 0 1 7.392 4.096 8 8 0 0 1 2.368 5.92 9.92 9.92 0 0 1-3.488 7.648 14.496 14.496 0 0 1-9.888 3.168 19.968 19.968 0 0 1-7.52-1.376 9.28 9.28 0 0 1-4.512-4.16 12.512 12.512 0 0 1-1.216-6.016l6.624-0.352c0.096 2.112 0.416 3.584 1.056 4.288 1.024 1.216 2.912 1.792 5.632 1.792 2.272 0 3.904-0.32 4.928-1.152a3.616 3.616 0 0 0 1.504-2.976 2.976 2.976 0 0 0-1.248-2.496 18.24 18.24 0 0 0-4.8-2.464 44.736 44.736 0 0 1-5.76-2.88 8.544 8.544 0 0 1-2.848-3.008 7.904 7.904 0 0 1-1.056-4.192 8.96 8.96 0 0 1 3.136-7.072c2.048-1.952 5.024-2.88 8.896-2.88 4 0 7.072 0.928 9.216 2.88a10.016 10.016 0 0 1 3.584 7.36l-6.688 0.32a5.28 5.28 0 0 0-1.76-3.744c-0.96-0.896-2.464-1.344-4.384-1.344s-3.296 0.384-4.128 1.024a3.328 3.328 0 0 0-1.184 2.592 3.2 3.2 0 0 0 1.152 2.432z m18.272-61.792a12.352 12.352 0 0 1-12.416 12.384h-75.84a12.32 12.32 0 0 1-12.384-12.384v-66.784c0-6.848 5.504-12.416 12.384-12.416h75.84c6.88 0 12.416 5.568 12.416 12.416v66.784zM289.344 535.296l11.808-5.92 7.104 12.992v8.224s15.872 5.952 0 15.328l-1.184 35.392h-7.072l-1.792-41.056h-8.864v-24.96zM300 601.344h7.104v38.048s43.584 33.888 44.8 104c1.216 70.208-41.28 103.2-41.28 103.2s-17.248 9.44-23.744-7.264l2.496-64.672v-28.896s11.2-7.584 8.864-102.496l-8.864-6.56v-25.92l11.2 7.616-0.576-17.056z m-9.504 170.368v66.656c24.768 19.936 46.592-46.656 46.592-46.656 25.344-93.088-30.048-140.352-30.048-140.352 4.736 71.392-16.544 120.352-16.544 120.352z" p-id="1632" fill="#0894ec"></path><path d="M3.264 275.872l87.072-132.384h930.336l-29.056 132.384z" p-id="1633" fill="#0894ec"></path><path d="M614.496 371.104h23.168v-22.656h-23.168v22.656zM418.048 309.12h-14.592v56.992h14.592V309.12zM3.264 275.872v123.392h988.352V275.872H3.264z m547.872 28.64h18.912a203.648 203.648 0 0 0-6.56-13.92l14.656-5.152c2.176 3.712 5.12 9.056 8.672 16.064l-8.416 2.976h23.008v14.016h-50.272v-13.984z m23.904 56.672l-14.112 2.784a581.76 581.76 0 0 0-7.648-38.56l13.728-2.656c2.464 10.112 5.184 22.944 8.032 38.432z m-192.928-14.144l-0.672 25.12c-0.224 5.088-1.312 8.928-3.296 11.584a11.84 11.84 0 0 1-7.072 4.896 95.232 95.232 0 0 1-16.64 0.896 429.536 429.536 0 0 0-3.808-16.064c4.448 0.288 8.064 0.416 10.912 0.416a6.336 6.336 0 0 0 4-1.088 4.576 4.576 0 0 0 1.728-3.008c0.224-1.312 0.48-6.688 0.768-16.256 0.256-9.536 0.48-21.472 0.576-35.744h-10.368c-0.416 33.92-6.848 58.72-19.264 74.528a316.224 316.224 0 0 0-8.512-15.296c8.928-12.704 13.568-32.448 13.888-59.232h-12.224v-14.016h12.544c0.128-6.144 0.16-12.032 0.16-17.664h13.92l-0.224 17.664h24.224l-0.64 43.264z m50.304 41.824h-14.336v-8.768h-14.592v9.408h-14.336v-94.4h43.264v93.76z m7.776-71.936c9.568-10.688 16.416-20.96 20.576-30.72h16.416a129.088 129.088 0 0 1-4 8.992h68.256v12.64h-75.104a185.632 185.632 0 0 1-18.208 24.928 206.944 206.944 0 0 0-7.936-15.84z m94.144-2.656v12.192H463.04v-12.192h71.296z m8.224 70.624c-2.144 4.544-5.344 6.784-9.472 6.784a16.384 16.384 0 0 1-15.488-9.376c-3.424-6.24-5.056-16.256-5.056-29.92v-6.624h-61.056v-12.64h75.392v17.888c0 16.096 1.92 24.16 5.76 24.16 2.816 0 4.544-5.792 5.152-17.408 3.296 2.432 6.336 4.224 9.28 5.44-0.8 9.92-2.336 17.152-4.512 21.696z m55.04-20.64c-0.448 6.72-0.64 11.84-0.704 15.424-14.848 2.4-29.6 4.992-44.32 7.712l-2.368-16.288 24.704-3.328c2.784-14.24 5.408-29.92 7.936-46.976l15.616 3.104-9.952 41.824 9.088-1.472z m58.848-46.24h-24.672v16.064h20.224v57.376h-14.336v-6.016h-23.168v6.432h-14.304V334.08h16.192V285.888h15.392V304h24.672v14.016z" p-id="1634" fill="#0894ec"></path></svg>