<?xml version="1.0" standalone="no"?><!DOCTYPE svg PUBLIC "-//W3C//DTD SVG 1.1//EN" "http://www.w3.org/Graphics/SVG/1.1/DTD/svg11.dtd"><svg t="1521983889736" class="icon" style="" viewBox="0 0 1024 1024" version="1.1" xmlns="http://www.w3.org/2000/svg" p-id="547" xmlns:xlink="http://www.w3.org/1999/xlink" width="200" height="200"><defs><style type="text/css"></style></defs><path d="M873.8 242.3L511 576 148.2 242.3z" fill="#0894ec" p-id="548"></path><path d="M869 203.6H151.9c-45.5 0-82.5 37-82.5 82.5v485.6c0 45.5 37 82.5 82.5 82.5H869c45.5 0 82.5-37 82.5-82.5V286.1c0-45.4-37-82.5-82.5-82.5zM678.4 545.2c-9.8-10.4-26.3-10.9-36.7-1.1-10.4 9.8-10.9 26.3-1.1 36.7l214.8 228.4H169.2L384 580.8c9.8-10.4 9.3-26.9-1.1-36.7-10.4-9.8-26.9-9.3-36.7 1.1L118.1 787.8c-2.3-4.9-3.6-10.3-3.6-16.1V286.1c0-6.8 1.8-13.2 5-18.7l375.1 324.5c5 5.5 11.9 8.3 18.8 8.4h1c6.9-0.1 13.8-3 18.8-8.4l370.4-320.4c1.9 4.5 3 9.4 3 14.6v485.6c0 4.7-0.9 9.3-2.5 13.4L678.4 545.2zM513.8 540L177.1 248.6h673.5L513.8 540z" fill="#0894ec" p-id="549"></path></svg>