<?xml version="1.0" standalone="no"?><!DOCTYPE svg PUBLIC "-//W3C//DTD SVG 1.1//EN" "http://www.w3.org/Graphics/SVG/1.1/DTD/svg11.dtd"><svg t="1521292513976" class="icon" style="" viewBox="0 0 1024 1024" version="1.1" xmlns="http://www.w3.org/2000/svg" p-id="1042" xmlns:xlink="http://www.w3.org/1999/xlink" width="64" height="64"><defs><style type="text/css"></style></defs><path d="M668.602 648.669c-51.911 0-46.694 30.674-135.738 30.674s-92.023-32.91-116.365-32.289c-317.179 0-353.070 119.47-353.070 272.594h934.769c0-149.15-29.557-270.98-329.596-270.98z" p-id="1043" fill="#bfbfbf"></path><path d="M339.626 431.091c-13.66-32.537-21.113-58.244-21.113-65.696 0-26.702-1.242-52.532-1.74-76.749-15.151 7.326-9.189 37.505-9.189 73.644 0 30.674 13.412 57.003 32.041 68.8z" p-id="1044" fill="#bfbfbf"></path><path d="M719.148 438.046c23.348-8.817 37.133-38.001 37.133-72.651 0-26.576 2.857-50.047-10.557-63.46-0.621 20.367-1.366 41.603-1.366 63.46 0 6.458-8.942 35.642-25.211 72.651z" p-id="1045" fill="#bfbfbf"></path><path d="M339.626 431.091c33.282 79.233 103.325 199.323 191.747 199.323 85.070 0 153.002-113.508 187.773-192.369 16.269-36.884 25.211-66.192 25.211-72.651 0-21.858 0.869-43.093 1.366-63.46 3.353-115.744-1.49-201.682-214.351-201.682-204.54 0-216.958 79.357-214.722 188.27 0.496 24.34 1.74 50.047 1.74 76.749 0.124 7.575 7.575 33.282 21.236 65.821z" p-id="1046" fill="#bfbfbf"></path></svg>