<?xml version="1.0" standalone="no"?><!DOCTYPE svg PUBLIC "-//W3C//DTD SVG 1.1//EN" "http://www.w3.org/Graphics/SVG/1.1/DTD/svg11.dtd"><svg t="1521268585849" class="icon" style="" viewBox="0 0 1024 1024" version="1.1" xmlns="http://www.w3.org/2000/svg" p-id="1459" xmlns:xlink="http://www.w3.org/1999/xlink" width="128" height="128"><defs><style type="text/css"></style></defs><path d="M897.783367 236.806357c-30.795377-15.397688-56.691163-25.494651-57.786101-25.913183-11.255345-4.367471-23.967878 1.24434-28.345582 12.57541-4.377704 11.319813 1.289366 24.045649 12.609179 28.41312 0.246617 0.096191 24.87248 9.764388 53.821813 24.239054 22.028713 11.008728 40.36636 44.775786 40.36636 73.736375l0 378.87605c0 23.670096-15.343453 47.564295-39.067784 47.564295l-21.974477 0c-23.895223 0-48.451502-23.293519-48.451502-47.564295L808.955272 514.037403 808.955272 503.050164l0-72.212672c0-58.081837-36.519752-105.817024-83.399455-105.817024l-48.607044 0L676.948773 133.766586c0-34.518165-22.692838-71.736834-61.267389-71.736834L198.157105 62.029752c-36.096103 0-70.722738 35.640732-70.722738 71.736834l0 784.770454L83.990926 918.53704c-12.135388 0-21.975501 9.865695-21.975501 22.001083s9.839089 22.001083 21.975501 22.001083l65.925479 0 505.425258 0 65.925479 0c12.135388 0 21.974477-9.865695 21.974477-22.001083s-9.839089-22.001083-21.974477-22.001083l-44.315298 0 0-549.515429 48.607044 0c23.724331 0 39.397289 33.015951 39.397289 61.814858l0 72.212672 0 10.987239 0 214.69578c0 48.650023 44.200688 91.566462 92.453668 91.566462L879.382275 820.298622c46.107107 0 83.069951-40.309054 83.069951-91.566462L962.452225 349.858156C962.452225 303.922964 934.802492 255.31592 897.783367 236.806357zM171.436534 918.53704 171.436534 133.766586c0-12.027941 14.69263-27.734668 26.720571-27.734668l417.525302 0c10.579963 0 17.265222 15.051811 17.265222 27.734668l0 784.770454L171.436534 918.53704z" p-id="1460" fill="#0894ec"></path><path d="M556.199665 204.755384c0-12.136412-9.838066-21.975501-21.974477-21.975501L281.416368 182.779883c-12.136412 0-21.975501 9.838066-21.975501 21.975501L259.440867 380.816239c0 12.136412 9.838066 21.975501 21.975501 21.975501l252.80882 0c12.136412 0 21.974477-9.838066 21.974477-21.975501L556.199665 204.755384zM512.197498 358.788549l-208.754464 0 0-132.0065 208.754464 0L512.197498 358.788549z" p-id="1461" fill="#0894ec"></path></svg>