<?xml version="1.0" standalone="no"?><!DOCTYPE svg PUBLIC "-//W3C//DTD SVG 1.1//EN" "http://www.w3.org/Graphics/SVG/1.1/DTD/svg11.dtd"><svg t="1521293411733" class="icon" style="" viewBox="0 0 1024 1024" version="1.1" xmlns="http://www.w3.org/2000/svg" p-id="1222" xmlns:xlink="http://www.w3.org/1999/xlink" width="64" height="64"><defs><style type="text/css"></style></defs><path d="M885.127627 415.46641c0-25.038256-9.026584-46.598294-26.820855-64.074318-17.680684-17.382902-39.450501-26.197662-64.702628-26.197662L221.591329 325.19443c-25.242917 0-47.01478 8.810666-64.724117 26.199709-17.770735 17.477047-26.780947 39.035038-26.780947 64.072271l0 386.18348c0 12.679787 2.605338 24.723078 7.739265 35.792181 5.009084 10.810207 11.917424 20.413935 20.560268 28.572756 8.617261 8.100492 18.654872 14.492062 29.757744 18.964934 11.231809 4.579295 23.285333 6.901177 35.827997 6.901177l572.043514 0c12.617365-0.023536 24.509207-2.390443 35.292807-7.014764 10.685363-4.544503 20.253276-11.070126 28.439726-19.396769l0.069585-0.071631c8.02886-8.251941 14.33652-17.953907 18.751063-28.838815l0.050142-0.125867c4.313236-10.847046 6.502088-22.536272 6.507204-34.740222L885.125581 641.005143 686.457846 641.005143c-13.759375 0-24.239054-2.388397-30.319539-6.919597-7.066953-5.254677-12.065803-10.868535-14.854313-16.685008l-0.213871-0.427742c-3.857864-7.568373-6.039553-16.641005-6.487761-26.966165 0.081864-14.152325 4.793166-25.255197 14.795984-34.909068 10.188037-9.82067 22.317285-14.594393 37.078477-14.594393l198.669782 0L885.126604 415.46641z" p-id="1223" fill="#ff6600"></path><path d="M728.830909 167.05269l-1.6465-1.820462c-9.991562-11.050684-22.072715-20.111037-35.911908-26.931373l-1.191128-0.538259c-12.011568-4.965082-26.52512-7.933693-43.138496-8.826016-18.015306-0.958838-38.044478 4.336772-59.490929 15.761985-11.618619 5.990434-28.125571 14.616906-50.455135 26.371624-21.785166 11.471262-43.735084 22.901593-65.239863 33.973766l-0.234337 0.122797c-25.786293 13.715373-52.718689 27.723412-80.046081 41.633213l-73.624834 37.473473 473.29242 0L728.830909 167.05269z" p-id="1224" fill="#ff6600"></path><path d="M661.245627 565.599755c-6.831592 6.714935-10.233062 14.976086-10.233062 24.787546 0 9.79304 3.40147 18.191314 10.233062 25.134447 6.833639 6.985088 15.231913 10.44898 25.213241 10.44898 9.967002 0 18.383696-3.463891 25.213241-10.44898 6.833639-6.943133 10.218736-15.341407 10.218736-25.134447 0-9.81146-3.38612-18.071587-10.218736-24.787546-6.829546-6.695492-15.245216-10.04375-25.213241-10.04375C676.476517 555.556005 668.078243 558.904263 661.245627 565.599755z" p-id="1225" fill="#ff6600"></path></svg>