<?xml version="1.0" standalone="no"?><!DOCTYPE svg PUBLIC "-//W3C//DTD SVG 1.1//EN" "http://www.w3.org/Graphics/SVG/1.1/DTD/svg11.dtd"><svg t="1521646580067" class="icon" style="" viewBox="0 0 1024 1024" version="1.1" xmlns="http://www.w3.org/2000/svg" p-id="2954" xmlns:xlink="http://www.w3.org/1999/xlink" width="200" height="200"><defs><style type="text/css"></style></defs><path d="M760.32 195.584l-103.424 164.864c-10.24 16.384-2.048 29.696 18.432 29.696h61.44v128c0 9.728 7.68 17.408 16.384 17.408h51.712c9.216 0 16.384-7.68 16.384-17.408v-128H880.64c20.48 0 28.672-13.312 18.432-29.696l-101.888-165.376c-10.24-15.872-26.624-15.872-36.864 0.512z" p-id="2955" fill="#0894ec"></path><path d="M923.648 659.456v125.952c0 30.208-23.04 54.784-51.2 54.784H151.04c-28.16 0-51.2-24.576-51.2-54.784V238.08c0-30.208 23.04-54.784 51.2-54.784h356.352c14.336 1.536 26.112 14.336 26.112 30.208 0 16.896-12.8 30.72-28.16 30.72H210.432c-28.16 0-51.2 24.576-51.2 54.784v424.96c0 30.208 23.04 54.784 51.2 54.784H814.08c28.16 0 51.2-24.576 51.2-54.784v-174.592c2.56-14.336 13.824-25.088 27.648-25.088h2.56c15.36 0 28.16 13.824 28.16 30.72v104.448c0 16.896-12.8 30.72-28.16 30.72 15.36 0 28.16-13.824 28.16-30.72z" p-id="2956" fill="#0894ec"></path><path d="M517.12 373.76H221.696c-13.824 0-25.6-11.776-25.6-25.6s11.776-25.6 25.6-25.6H517.12c13.824 0 25.6 11.776 25.6 25.6 0 14.336-11.264 25.6-25.6 25.6zM517.12 532.48H221.696c-13.824 0-25.6-11.776-25.6-25.6s11.776-25.6 25.6-25.6H517.12c13.824 0 25.6 11.776 25.6 25.6 0 14.336-11.264 25.6-25.6 25.6zM720.384 691.2H221.696c-13.824 0-25.6-11.776-25.6-25.6 0-14.336 11.776-25.6 25.6-25.6h498.176c14.336 0 25.6 11.776 25.6 25.6 0.512 14.336-11.264 25.6-25.088 25.6z" p-id="2957" fill="#0894ec"></path></svg>