<?xml version="1.0" standalone="no"?><!DOCTYPE svg PUBLIC "-//W3C//DTD SVG 1.1//EN" "http://www.w3.org/Graphics/SVG/1.1/DTD/svg11.dtd"><svg t="1522559063466" class="icon" style="" viewBox="0 0 1024 1024" version="1.1" xmlns="http://www.w3.org/2000/svg" p-id="1888" xmlns:xlink="http://www.w3.org/1999/xlink" width="200" height="200"><defs><style type="text/css"></style></defs><path d="M931.2 448l-83.2-214.4C832 192 796.8 156.8 732.8 156.8h-118.4S576 67.2 556.8 67.2h-86.4c-19.2 0-57.6 89.6-57.6 89.6H291.2C227.2 156.8 192 192 176 233.6L92.8 448c-32 3.2-92.8 41.6-92.8 115.2v272h96v67.2c0 108.8 128 105.6 128 0v-67.2h576v67.2c0 105.6 128 108.8 128 0v-67.2h96v-272c0-73.6-57.6-112-92.8-115.2zM204.8 672c-41.6 0-73.6-32-73.6-73.6 0-41.6 32-73.6 73.6-73.6s73.6 32 73.6 73.6c0 38.4-32 73.6-73.6 73.6z m-25.6-230.4l64-166.4c6.4-22.4 19.2-41.6 48-41.6H736c28.8 0 38.4 16 48 41.6l64 166.4H179.2z m640 230.4c-41.6 0-73.6-32-73.6-73.6 0-41.6 32-73.6 73.6-73.6 41.6 0 73.6 32 73.6 73.6-3.2 38.4-35.2 73.6-73.6 73.6z" fill="#666666" p-id="1889"></path></svg>