<?xml version="1.0" standalone="no"?><!DOCTYPE svg PUBLIC "-//W3C//DTD SVG 1.1//EN" "http://www.w3.org/Graphics/SVG/1.1/DTD/svg11.dtd"><svg t="1528091441353" class="icon" style="" viewBox="0 0 1024 1024" version="1.1" xmlns="http://www.w3.org/2000/svg" p-id="4472" xmlns:xlink="http://www.w3.org/1999/xlink" width="64" height="64"><defs><style type="text/css"></style></defs><path d="M916.608 484.19328H104.17664c-13.01504 0-26.27072 13.23008-26.27072 26.21952v13.9776c0 114.46784 45.21472 222.62784 127.3088 304.55808s190.47936 127.04256 305.1776 127.04256c114.70336 0 223.08352-45.12256 305.1776-127.04256 82.09408-81.93024 127.29856-190.09024 127.29856-304.55808v-13.9776c0.01024-16.19968-13.62944-26.21952-26.26048-26.21952z m-406.21056 393.7792c-144.31744 0-249.41056-44.032-313.84064-162.99008 249.67168 5.62688 381.6704 8.01792 487.53152 8.01792 75.25888 0 104.61696-1.34144 137.70752-3.59936-65.11616 116.52096-168.88832 158.57152-311.3984 158.57152z m369.70496-329.2928c-1.76128 42.1376-10.22976 72.16128-24.35072 109.53216-20.21888 1.90976-53.37088 2.87744-119.06048 2.87744-149.65248 0-386.7136-4.87936-576.48128-9.13408-2.47808 0.01024 5.29408 0.37376 2.92352 1.09568-12.97408-35.90656-20.7616-64.1536-22.44096-104.36096l-0.0768-1.81248 739.48672 1.80224zM511.17568 450.13504c5.23264 2.6112 7.74656 2.6112 13.22496 2.6112 7.8592 0 18.58048-5.4016 23.808-10.50624 61.57824-110.10048 178.72896-315.22816 193.31072-332.69248 8.38656-11.15136 7.24992-26.99776-2.64192-36.864-5.08928-5.07904-11.6224-7.87968-18.37056-7.87968-6.7584 0-13.29664 2.80064-18.38592 7.87968l-0.19456 0.19968-0.26112 0.128c-5.77536 2.88256-24.23808 29.77792-200.9088 340.28544-4.72576 11.93984-3.45088 28.53376 10.4192 36.8384z m72.3968-23.42912c-0.70144 6.94784 1.55648 13.23008 6.50752 18.16576l0.19968 0.19968 0.12288 0.256c2.2272 4.43904 9.48224 7.424 18.048 7.424 5.18144 0 13.2352-2.65216 18.62144-5.30432l251.88864-223.44704c5.32992-5.3248 8.64256-11.89888 9.29792-18.5088 0.70144-6.94272-1.55136-13.22496-6.50752-18.17088-5.9904-5.97504-13.62432-9.40032-20.96128-9.40032-6.00064 0-11.45344 2.28352-15.87712 6.6816l-252.05248 223.59552c-5.3248 5.3248-8.63232 11.89888-9.28768 18.5088z" fill="#ea9518" p-id="4473"></path></svg>