<?xml version="1.0" standalone="no"?><!DOCTYPE svg PUBLIC "-//W3C//DTD SVG 1.1//EN" "http://www.w3.org/Graphics/SVG/1.1/DTD/svg11.dtd"><svg t="1520430523080" class="icon" style="" viewBox="0 0 1024 1024" version="1.1" xmlns="http://www.w3.org/2000/svg" p-id="715" xmlns:xlink="http://www.w3.org/1999/xlink" width="48" height="48"><defs><style type="text/css"></style></defs><path d="M729.570464 232.084822c45.538992 0 82.470602-37.086663 82.470602-82.844823 0-45.757137-36.931611-82.850963-82.470602-82.850963-45.554342 0-80.182396 37.093826-80.182396 82.850963C649.388068 194.998159 684.016122 232.084822 729.570464 232.084822zM811.903937 541.096688c-0.047074-0.153496-0.091078-0.309038-0.138152-0.462534L811.765785 384.113331c0 0 9.746368-31.939433 27.115655-0.438998l0.891336 153.145959c0 0-6.291544 26.498514 27.950707 26.498514 25.786326 0 25.005511-25.292036 25.005511-25.292036l0.274257-250.856351c0 0-13.420187-27.614941-56.370108-27.614941L587.919639 259.555477c0 0-36.177403-4.598738-47.47312 27.614941l0 249.992681c0 0 0.987531 25.592888 26.128124 25.592888 0 0 27.992665 0.137123 27.992665-27.031657L594.567309 384.551306c0 0 15.544658-34.380018 27.115655 1.727341l0.085961 155.814742c-0.057307 0.188288-0.110522 0.3776-0.168852 0.566912-19.424171 63.302745-81.072709 230.93872-81.072709 230.93872s86.418679-31.789007 126.748829 43.275619c36.711591 68.321038 5.593621 133.598764 5.593621 133.598764l88.242286 0c0 0-30.200027-66.963111 7.005841-136.244011 39.90546-74.256214 125.349912-40.630373 125.349912-40.630373S831.534824 605.01751 811.903937 541.096688zM310.444935 232.084822c45.546155 0 82.470602-37.086663 82.470602-82.844823 0-45.757137-36.924447-82.850963-82.470602-82.850963-45.547178 0-80.174209 37.093826-80.174209 82.850963C230.270726 194.998159 264.897756 232.084822 310.444935 232.084822zM417.508639 259.555477l-248.714529 0c0 0-36.17638-4.598738-47.47926 27.614941l0 249.992681c0 0 0.986508 25.592888 26.142451 25.592888 0 0 27.979361 0.137123 27.979361-27.031657L175.436663 384.551306c0 0 15.544658-34.380018 27.136122 1.727341l0.137129 536.064069c0 0-0.987531 27.470655 26.141428 27.470655l28.12263 0.438998c0 0 26.567141-0.300852 26.567141-27.90863l0-248.827135c0 0 0.987531-14.105253 15.127132-14.105253 0 0 12.42754 5.0449 12.42754 14.681374l0 250.554476c0 0 0 25.168216 27.136122 25.168216l27.273251 0c0 0 27.128959-1.727341 27.128959-25.168216L392.634116 384.113331c0 0 9.753531-31.939433 27.128959-0.438998l0.884173 153.145959c0 0-6.291544 26.498514 27.951731 26.498514 25.79963 0 25.004488-25.292036 25.004488-25.292036l0.287561-250.856351C473.892051 287.170418 460.47084 259.555477 417.508639 259.555477z" p-id="716" fill="#ea9518"></path></svg>