<?xml version="1.0" standalone="no"?><!DOCTYPE svg PUBLIC "-//W3C//DTD SVG 1.1//EN" "http://www.w3.org/Graphics/SVG/1.1/DTD/svg11.dtd"><svg t="1520888783656" class="icon" style="" viewBox="0 0 1024 1024" version="1.1" xmlns="http://www.w3.org/2000/svg" p-id="618" xmlns:xlink="http://www.w3.org/1999/xlink" width="48" height="48"><defs><style type="text/css"></style></defs><path d="M1005.667 464.969c0 34.117-27.66 61.785-61.785 61.785-15.9 0-30.265-6.21-41.23-16.115l-3.125-2.902c-76.67-136.975-223.299-243.267-391.429-243.267-160.387 0-300.869 104.375-380.024 231.034-2.077 5.007-4.98 9.532-8.22 13.767-1.275 2.188-2.672 4.292-3.9 6.518l1.162-2.758c-11.207 11.442-28.755 20.527-46.062 20.527-34.087-0.01-61.745-27.675-61.745-61.757 0-17.445 1.405-37.337 13.04-48.545l0.532-1.22-0.532 1.22c98.082-190.482 258.867-285.892 486.149-285.892 237.669 0 372.969 98.442 495.989 309.582C1009.477 458.164 1005.667 464.969 1005.667 464.969zM504.264 398.036c128.845 0 237.764 73.012 301.634 173.457 12.965 17.535 25.12 29.135 25.12 49.465 0 34.13-27.635 61.79-61.745 61.79-12.12 0-23.335-3.65-32.86-9.655l-4.99-3.79c-7.805-7.175-4.525-4.515-9.05-10.285-5.865-7.095-8.255-13.555-13.555-22.75-41.46-70.715-117.03-119.345-204.954-119.345-87.87 0-164.007 47.83-205.499 118.475-6.682 10.64-10.007 19.775-18.32 35.785-2.707 2.915 0.205 0.42-2.912 3.315l-3.725 3.275c-10.155 7.335-22.537 11.785-36.025 11.785-34.117 0-61.767-27.655-61.767-61.755 0-18.45 6.545-33.295 19.01-46.395C262.589 472.919 371.209 398.036 504.264 398.036zM500.651 643.853c65.507 0 118.597 53.085 118.597 118.585 0 65.47-53.09 118.57-118.597 118.57-65.47 0-118.56-53.1-118.56-118.57C382.082 696.943 435.181 643.853 500.651 643.853z" p-id="619" fill="#1296db"></path></svg>